<svg xmlns="http://www.w3.org/2000/svg" width="14.188" height="27" viewBox="0 0 14.188 27">
  <defs>
    <style>
      .cls-1 {
        fill: #fff;
        fill-rule: evenodd;
      }
    </style>
  </defs>
  <path id="Forma_1" data-name="Forma 1" class="cls-1" d="M901.661,5930.01l-3.4-.01c-3.825,0-6.3,2.61-6.3,6.64v3.07h-3.424a0.539,0.539,0,0,0-.535.55v4.44a0.545,0.545,0,0,0,.535.55h3.424v11.2a0.545,0.545,0,0,0,.535.55h4.466a0.546,0.546,0,0,0,.536-0.55v-11.2h4a0.546,0.546,0,0,0,.536-0.55v-4.44a0.549,0.549,0,0,0-.156-0.39,0.542,0.542,0,0,0-.379-0.16h-4v-2.6c0-1.25.289-1.88,1.87-1.88h2.294a0.545,0.545,0,0,0,.535-0.55v-4.12A0.538,0.538,0,0,0,901.661,5930.01Z" transform="translate(-888 -5930)"/>
</svg>
